<?xml version="1.0" encoding="utf-8"?>
<svg id="master-artboard" viewBox="0 0 1400 1400" version="1.1" xmlns="http://www.w3.org/2000/svg" x="0px" y="0px" width="1400px" height="1400px" enable-background="new 0 0 1400 1400"><g transform="matrix(13.202290597071737, -4.3092649464673505, 4.3092649464673505, 13.202290597071737, -181.1158230601336, 256.7931392379692)"><g>
  <title>background</title>
  <path d="M -1 -1 H 101 V 101 H -1 V -1 Z" fill="none" id="canvas_background"/>
 </g><title>Layer 1</title><path id="svg_1" d="m5.25,34l0,32l10,-6l17.668999,6.156998l-3.182999,9.050003l21.604,7.592003l3.202999,-9.105003l26.707001,9.306l0,-66l-66,23l-10,-6zm44.256001,44.974998l-15.943001,-5.603996l2.188999,-6.227005l15.959,5.562004l-2.204998,6.268997zm28.743999,-0.197998l-13,-4.529999l0,-48.494001l13,-4.530001l0,57.554001z" transform="matrix(1, 0, 0, 1, 0, 0)"/><path id="svg_2" d="m93.25,48.5l-6.837997,0c-0.828003,0 -1.5,0.672001 -1.5,1.5s0.671997,1.5 1.5,1.5l6.837997,0c0.828003,0 1.5,-0.672001 1.5,-1.5s-0.671997,-1.5 -1.5,-1.5z" transform="matrix(1, 0, 0, 1, 0, 0)"/><path id="svg_3" d="m92.438004,64.806999l-5.444,-3.108997c-0.720001,-0.411003 -1.636002,-0.160004 -2.047005,0.558998c-0.410995,0.720001 -0.159996,1.636002 0.558998,2.047001l5.444,3.109001c0.720001,0.409996 1.636002,0.159996 2.047005,-0.559006c0.410995,-0.719994 0.159996,-1.635994 -0.558998,-2.046997z" transform="matrix(1, 0, 0, 1, 0, 0)"/><path id="svg_4" d="m86.994003,38.301998l5.444,-3.112999c0.719994,-0.410999 0.968994,-1.327 0.557999,-2.045998c-0.411003,-0.720001 -1.327003,-0.969002 -2.047005,-0.559002l-5.443001,3.112999c-0.719994,0.412003 -0.968994,1.328003 -0.558998,2.047001c0.412003,0.720001 1.328003,0.969002 2.047005,0.557999z" transform="matrix(1, 0, 0, 1, 0, 0)"/></g></svg>